<?xml version="1.0" encoding="UTF-8" standalone="no"?>
<svg
   xmlns:dc="http://purl.org/dc/elements/1.1/"
   xmlns:cc="http://creativecommons.org/ns#"
   xmlns:rdf="http://www.w3.org/1999/02/22-rdf-syntax-ns#"
   xmlns:svg="http://www.w3.org/2000/svg"
   xmlns="http://www.w3.org/2000/svg"
   xmlns:sodipodi="http://sodipodi.sourceforge.net/DTD/sodipodi-0.dtd"
   xmlns:inkscape="http://www.inkscape.org/namespaces/inkscape"
   width="1000"
   height="400"
   viewBox="0 0 800.10003 320.04004"
   id="svg2"
   version="1.1"
   inkscape:version="0.48.4 r9939"
   sodipodi:docname="invoicate-logo.svg"
   inkscape:export-filename="/home/karen/Desktop/owl.png"
   inkscape:export-xdpi="100"
   inkscape:export-ydpi="100">
  <metadata
     id="metadata9">
    <rdf:RDF>
      <cc:Work
         rdf:about="">
        <dc:format>image/svg+xml</dc:format>
        <dc:type
           rdf:resource="http://purl.org/dc/dcmitype/StillImage" />
        <dc:title></dc:title>
      </cc:Work>
    </rdf:RDF>
  </metadata>
  <defs
     id="defs7" />
  <sodipodi:namedview
     pagecolor="#ffffff"
     bordercolor="#666666"
     borderopacity="1"
     objecttolerance="10"
     gridtolerance="10"
     guidetolerance="10"
     inkscape:pageopacity="0"
     inkscape:pageshadow="2"
     inkscape:window-width="1881"
     inkscape:window-height="1056"
     id="namedview5"
     showgrid="false"
     inkscape:zoom="1.0076865"
     inkscape:cx="590.18158"
     inkscape:cy="42.915102"
     inkscape:window-x="39"
     inkscape:window-y="24"
     inkscape:window-maximized="1"
     inkscape:current-layer="svg2" />
  <path
     sodipodi:type="star"
     style="fill:#ee192d;fill-opacity:1;stroke:none"
     id="path3773"
     sodipodi:sides="8"
     sodipodi:cx="-371.90793"
     sodipodi:cy="99.643234"
     sodipodi:r1="394.05048"
     sodipodi:r2="364.05515"
     sodipodi:arg1="0.38712004"
     sodipodi:arg2="0.77981912"
     inkscape:flatsided="true"
     inkscape:rounded="0"
     inkscape:randomized="0"
     d="m -7.0171285,248.40641 -212.0654915,214.44503 -301.58848,1.68259 -214.44504,-212.06549 -1.68259,-301.588479 212.06549,-214.445031 301.58848,-1.6826 214.4450393,212.065494 z"
     transform="matrix(0.3256118,0,0,0.3256118,241.67796,127.3769)" />
  <path
     id="Selection #2-3-6"
     d="m 172.33598,240.03746 c 0,0 -14.79418,-11.3981 -14.79418,-11.3981 -1.42026,-1.1145 -6.10508,-5.01031 -7.56148,-5.22399 -1.43011,-0.2137 -3.63282,1.13751 -4.93139,1.78516 0,0 -8.87652,3.76101 -8.87652,3.76101 -7.40369,2.80761 -20.39957,5.84206 -28.27337,5.85521 -5.29961,0.0104 -8.284759,0.26959 -13.479154,-1.54187 C 78.254758,227.63334 66.96514,209.66334 63.93068,193.393 c -0.687106,-3.68867 -0.785729,-7.43655 -0.742993,-11.17783 0,0 0.299169,-3.28761 0.299169,-3.28761 0.535882,-7.65024 2.242144,-14.99801 4.3495,-22.35567 0,0 2.475563,-7.56148 2.475563,-7.56148 0.272869,-0.82518 0.933682,-2.45584 0.746285,-3.27445 -0.325471,-1.41366 -2.097492,-1.78516 -3.267879,-2.21255 -2.429531,-0.89095 -5.480421,-2.56433 -7.561473,-4.09964 -6.256302,-4.61249 -10.454568,-11.12851 -12.167402,-18.68671 -0.414237,-1.82133 -0.627934,-1.97257 -0.654233,-3.94513 -0.0658,-5.58233 -0.378072,-7.71927 1.423528,-13.15039 0.687112,-2.06461 0.933682,-2.94569 1.949544,-4.931396 0.565467,-1.10464 1.486,-2.3605 1.462978,-3.61636 -0.02629,-1.34791 -1.837764,-5.13194 -2.442676,-6.5752 -0.325476,-0.78244 -0.999433,-2.30788 -0.407665,-3.09035 0.614783,-0.8186 2.416383,-0.36491 3.27445,-0.22355 2.186248,0.35834 7.002578,1.65695 8.876515,0.78903 0,0 4.931395,-3.12652 4.931395,-3.12652 2.955558,-1.81147 6.019596,-3.36978 9.20528,-4.72755 7.545046,-3.21856 14.603517,-4.76703 22.684434,-5.82234 0,0 5.91768,-0.56548 5.91768,-0.56548 0,0 7.56148,0 7.56148,0 0,0 5.91768,0.56548 5.91768,0.56548 8.38008,1.09147 16.27362,2.90295 23.99948,6.4404 2.755,1.25916 5.6744,2.76159 8.219,4.39879 1.37093,0.88438 4.1325,2.96542 5.58892,3.25473 1.54188,0.30905 7.76203,-1.27887 9.86278,-1.45312 1.80161,-0.14797 2.54461,0.38137 2.00216,2.24546 -0.59177,2.04486 -3.235,6.81845 -3.18899,8.54775 0,0 2.99172,7.561476 2.99172,7.561476 1.57147,4.72426 1.5386,7.64037 1.48272,12.49287 -0.0657,5.63495 -2.67282,12.25617 -5.97028,16.76675 0,0 -3.58348,4.1358 -3.58348,4.1358 -0.6082,0.66739 -1.35448,1.39724 -0.92382,2.3835 0.28603,0.65425 1.35777,1.38737 1.92981,1.82134 0,0 4.2739,3.49472 4.2739,3.49472 4.69797,4.28703 8.99156,8.73845 12.86108,13.80792 9.91212,12.99588 16.75361,27.10626 16.7273,43.72506 -0.0125,7.92642 -2.63337,18.23303 -6.16425,25.31452 -0.85476,1.70955 -1.79502,3.75443 -2.96211,5.25358 -0.48987,0.63122 -1.17041,1.44327 -2.04819,1.44327 -1.006,0 -1.6208,-1.03889 -2.11394,-1.76545 -1.01915,-1.50243 -1.47284,-2.45582 -3.1495,-3.2876 0,0 2.30131,16.10926 2.30131,16.10926 -2.58406,-0.52602 -5.43112,-3.34349 -7.56148,-4.97087 z M 94.091118,85.332894 c 4.11279,2.2586 7.383952,5.32592 10.138962,9.10338 0,0 2.61036,4.25414 2.61036,4.25414 0.3978,0.63122 0.84161,1.30189 1.6964,0.95012 0.80875,-0.33206 1.36106,-1.51888 1.76215,-2.24543 0.79231,-1.42024 1.53202,-2.65966 2.53802,-3.94511 3.00486,-3.85308 6.46014,-6.79876 10.84252,-8.95543 0,0 4.22455,-1.7457 4.22455,-1.7457 0.47999,-0.28931 0.96327,-0.72657 0.65093,-1.33807 -0.35834,-0.70354 -1.86077,-0.97312 -2.57418,-1.15394 0,0 -6.90395,-1.36108 -6.90395,-1.36108 -7.96915,-1.14079 -16.05663,-1.14407 -23.999478,0.28931 -2.593915,0.47013 -6.404242,0.73971 -8.218993,2.7583 0,0 7.232709,3.38951 7.232709,3.38951 z m -23.013192,3.86951 c -7.028886,2.40654 -13.110947,8.12037 -15.760749,15.096646 -3.537453,9.33022 -1.305175,20.56724 5.9111,27.58625 2.067899,2.01201 4.32977,3.43227 6.890807,4.71443 2.932542,1.46627 6.226712,2.50843 9.534041,2.54787 4.967561,0.0559 8.975153,-0.36819 13.479163,-2.73529 3.146232,-1.65365 6.095204,-3.96153 8.25187,-6.79873 4.356072,-5.727 5.638242,-10.33293 5.556052,-17.42427 -0.0394,-3.28761 -1.10464,-6.92699 -2.55119,-9.86282 -4.83277,-9.810186 -14.846797,-15.402396 -25.722179,-14.370086 -1.584617,0.25971 -4.109494,0.73971 -5.588915,1.246 z m 52.601604,2.23228 c -7.42341,4.30019 -12.47974,12.808486 -12.49289,21.412136 -0.007,3.58348 0.15123,5.74015 1.34134,9.20528 3.1791,9.26774 12.6737,16.97715 22.65813,17.0955 5.12866,0.0593 8.12368,-0.20054 12.82165,-2.54787 3.45855,-1.73257 6.16424,-3.6065 8.61022,-6.6574 8.38007,-10.45128 7.81463,-24.99891 -1.70626,-34.519796 -2.97199,-2.97199 -6.46342,-5.23055 -10.52032,-6.43053 -3.33035,-0.98628 -6.733,-1.36106 -10.19156,-1.0356 -3.94184,0.60164 -7.03218,1.45968 -10.52031,3.47828 z M 92.601846,103.31279 c 7.472704,9.69511 2.097491,24.26906 -10.017319,26.54406 -6.384523,1.1967 -12.571786,-0.94354 -16.592513,-6.16096 -5.355499,-6.94997 -3.961562,-18.1574 3.113359,-23.42085 2.219123,-1.650356 4.227846,-2.462416 6.903956,-3.057466 6.407531,-0.88437 12.519178,0.80545 16.592517,6.095216 z m 56.944514,-0.65753 c 3.40595,4.07005 3.78074,7.45298 3.72156,12.49288 -0.0854,7.25574 -6.23986,13.41011 -13.15041,14.70871 -14.13338,2.65309 -24.52548,-11.54275 -17.99632,-24.24276 1.08162,-2.10406 2.35721,-3.64265 4.1884,-5.15166 2.03832,-1.683246 4.67827,-2.676116 7.23273,-3.244856 6.01958,-0.83177 11.97015,0.62136 16.00404,5.437686 z m -78.968152,5.58892 c -4.014156,6.65082 0.535882,15.2676 8.389956,15.44843 9.820062,0.22357 14.057782,-11.3981 7.219568,-17.69058 -1.052026,-0.96654 -2.245421,-1.66681 -3.603205,-2.11392 -1.686547,-0.55889 -2.850348,-0.65095 -4.602646,-0.47672 -3.221841,0.60823 -5.661245,1.943 -7.403673,4.83279 z m 56.569722,1.97256 c -2.20926,6.21028 2.34406,13.31148 9.02448,13.47587 1.70625,0.0395 3.35005,-0.12491 4.93139,-0.82848 1.12435,-0.49972 2.08104,-1.269 2.94567,-2.14023 6.67056,-6.7297 1.46956,-18.29877 -8.53459,-17.31251 -3.96813,0.74959 -6.973,2.88982 -8.36695,6.80535 z m -34.043085,32.11327 c -2.304609,1.21312 -5.023454,2.03503 -7.561482,2.5972 -2.215836,0.48657 -5.986715,0.20388 -7.423394,1.8279 -0.821903,0.92711 -1.893659,4.23771 -2.330909,5.54291 0,0 -3.682114,12.49285 -3.682114,12.49285 -1.098058,4.39225 -2.620223,12.00633 -2.672816,16.43802 0,0 0,4.9314 0,4.9314 0.0069,5.00044 1.568181,10.82278 3.419102,15.45172 5.352211,13.38053 15.764041,26.13643 31.100688,27.22789 0,0 7.89024,-0.54573 7.89024,-0.54573 10.35923,-1.10793 19.41986,-3.78404 28.93086,-7.98888 3.32705,-1.46956 4.7769,-2.31447 7.89026,-4.08978 0.90739,-0.51616 2.5939,-1.1408 2.31447,-2.45253 -0.32549,-1.52546 -2.74515,-2.7846 -3.95829,-3.61308 0,0 -10.19154,-7.63382 -10.19154,-7.63382 -10.42827,-8.61679 -19.70916,-18.66697 -20.74147,-32.79379 -0.0821,-1.12437 -0.32218,-1.79174 -0.23999,-2.95883 0.48329,-6.77245 1.84105,-11.71372 4.9577,-17.75305 0.85805,-1.66353 3.59005,-4.76044 2.10734,-6.50616 -0.47013,-0.55231 -1.246,-0.96655 -1.86406,-1.33805 -0.93698,-0.56218 -2.48213,-1.77202 -3.60322,-1.45969 -1.23941,0.34847 -1.7457,2.012 -2.24213,3.05746 0,0 -4.09964,8.54775 -4.09964,8.54775 -0.51615,1.03562 -1.72271,4.64869 -3.17582,4.20813 -1.04874,-0.3156 -1.81476,-2.60049 -2.25858,-3.5506 0,0 -4.30019,-9.53405 -4.30019,-9.53405 -0.70354,-1.58132 -1.08161,-3.08047 -3.011435,-3.08703 -1.765431,0.6345 -3.524307,2.07117 -5.25358,2.98184 z m 51.286555,2.32762 c -2.14023,0.50629 -5.37523,0.9534 -7.56148,0.9534 0,0 -2.95885,-0.21697 -2.95885,-0.21697 -0.93367,-0.0104 -2.79444,-0.079 -3.61307,0.24328 -2.07777,0.81203 -4.35936,5.31604 -5.34234,7.3182 -3.89253,7.90996 -4.79989,17.09222 -1.27888,25.3145 4.33963,10.13238 13.60408,18.17714 22.39842,24.46633 3.79059,2.70898 7.62064,5.46727 11.83535,7.4957 0,0 13.15039,5.00703 13.15039,5.00703 2.76488,1.12108 5.74343,3.06405 7.8771,5.14181 0.86463,0.83833 2.37035,3.05088 3.59663,3.05088 1.4268,0 2.48214,-3.58348 2.87995,-4.72427 1.63392,-4.73086 3.01143,-11.43756 3.0706,-16.438 0.22029,-18.91354 -9.72142,-34.43431 -21.97103,-47.99895 -2.99829,-3.32047 -6.32205,-6.32533 -9.91868,-8.99817 -1.64707,-1.22298 -3.47828,-2.60377 -5.58891,-2.69582 0,0 -6.5752,2.08105 -6.5752,2.08105 z m 14.12352,71.97542 c -0.5589,-0.29261 -1.51888,-0.61808 -2.09092,-0.2072 -0.6378,0.457 -0.5227,1.64382 -0.28271,2.28161 0.64436,1.70955 2.36378,2.79446 4.03057,3.28759 0.56548,-1.99886 0.39125,-4.28375 -1.65694,-5.36206 z m 6.78559,4.08977 c -0.27287,1.34133 1.03559,6.09521 1.91338,7.16039 0.52931,0.64436 1.79833,1.72926 2.71556,1.43339 1.07835,-0.34519 0.44055,-2.56432 0.29589,-3.37637 -0.44382,-2.44925 -0.83175,-6.68038 -4.32319,-6.05248 -0.11181,0.0987 -0.46028,0.13155 -0.60164,0.83507 z"
     style="fill:#ffffff;stroke:#ffffff;stroke-width:1.08190501;stroke-miterlimit:4;stroke-opacity:1;stroke-dasharray:none"
     inkscape:connector-curvature="0" />
  <text
     xml:space="preserve"
     style="font-size:251.64414977999999223px;font-style:normal;font-variant:normal;font-weight:normal;font-stretch:normal;line-height:125%;letter-spacing:0px;word-spacing:0px;fill:#ffffff;fill-opacity:1;stroke:none;font-family:HaloHandletter;-inkscape-font-specification:HaloHandletter"
     x="271.82614"
     y="204.43988"
     id="text3792"
     sodipodi:linespacing="125%"><tspan
       sodipodi:role="line"
       id="tspan3794"
       x="271.82614"
       y="204.43988">invoicate</tspan></text>
</svg>
