<?xml version="1.0" encoding="UTF-8" standalone="no"?>
<svg
   xmlns:dc="http://purl.org/dc/elements/1.1/"
   xmlns:cc="http://creativecommons.org/ns#"
   xmlns:rdf="http://www.w3.org/1999/02/22-rdf-syntax-ns#"
   xmlns:svg="http://www.w3.org/2000/svg"
   xmlns="http://www.w3.org/2000/svg"
   xmlns:sodipodi="http://sodipodi.sourceforge.net/DTD/sodipodi-0.dtd"
   xmlns:inkscape="http://www.inkscape.org/namespaces/inkscape"
   width="400"
   height="400"
   viewBox="0 0 320.04001 320.04004"
   id="svg2"
   version="1.1"
   inkscape:version="0.48.4 r9939"
   sodipodi:docname="invoicate-logo-notext.svg"
   inkscape:export-filename="/home/karen/Desktop/owl.png"
   inkscape:export-xdpi="100"
   inkscape:export-ydpi="100">
  <metadata
     id="metadata9">
    <rdf:RDF>
      <cc:Work
         rdf:about="">
        <dc:format>image/svg+xml</dc:format>
        <dc:type
           rdf:resource="http://purl.org/dc/dcmitype/StillImage" />
        <dc:title></dc:title>
      </cc:Work>
    </rdf:RDF>
  </metadata>
  <defs
     id="defs7" />
  <sodipodi:namedview
     pagecolor="#ffffff"
     bordercolor="#666666"
     borderopacity="1"
     objecttolerance="10"
     gridtolerance="10"
     guidetolerance="10"
     inkscape:pageopacity="0"
     inkscape:pageshadow="2"
     inkscape:window-width="1881"
     inkscape:window-height="1056"
     id="namedview5"
     showgrid="false"
     inkscape:zoom="2.015373"
     inkscape:cx="234.13866"
     inkscape:cy="185.14693"
     inkscape:window-x="39"
     inkscape:window-y="24"
     inkscape:window-maximized="1"
     inkscape:current-layer="svg2" />
  <path
     sodipodi:type="star"
     style="fill:#ee192d;fill-opacity:1;stroke:none"
     id="path3773"
     sodipodi:sides="8"
     sodipodi:cx="-371.90793"
     sodipodi:cy="99.643234"
     sodipodi:r1="394.05048"
     sodipodi:r2="364.05515"
     sodipodi:arg1="0.38712004"
     sodipodi:arg2="0.77981912"
     inkscape:flatsided="true"
     inkscape:rounded="0"
     inkscape:randomized="0"
     d="m -7.0171285,248.40641 -212.0654915,214.44503 -301.58848,1.68259 -214.44504,-212.06549 -1.68259,-301.588479 212.06549,-214.445031 301.58848,-1.6826 214.4450393,212.065494 z"
     transform="matrix(0.43767505,0,0,0.43767505,322.64581,116.59534)" />
  <path
     id="Selection #2-3-6"
     d="m 229.43896,268.0294 c 0,0 -19.88578,-15.32089 -19.88578,-15.32089 -1.90906,-1.49807 -8.20622,-6.73468 -10.16386,-7.02189 -1.9223,-0.28725 -4.8831,1.52899 -6.62859,2.39954 0,0 -11.93147,5.05541 -11.93147,5.05541 -9.95176,3.77388 -27.42033,7.85267 -38.004,7.87035 -7.12354,0.014 -11.13605,0.36237 -18.11817,-2.07252 -21.72854,-7.58315 -36.903626,-31.73774 -40.982433,-53.60772 -0.923582,-4.95817 -1.056147,-9.99592 -0.998702,-15.02481 0,0 0.402131,-4.41908 0.402131,-4.41908 0.720312,-10.28317 3.013805,-20.15976 5.846433,-30.04965 0,0 3.327558,-10.16385 3.327558,-10.16385 0.36678,-1.10918 1.25502,-3.30106 1.003128,-4.4014 -0.437486,-1.90018 -2.81937,-2.39954 -4.392559,-2.97402 -3.265684,-1.19759 -7.366574,-3.44688 -10.163845,-5.51058 -8.409485,-6.19993 -14.052635,-14.95852 -16.354961,-25.11797 -0.556803,-2.44816 -0.844046,-2.65145 -0.879395,-5.30289 -0.08845,-7.503554 -0.508191,-10.375948 1.913452,-17.676254 0.92359,-2.77517 1.255019,-3.959484 2.620503,-6.628595 0.760079,-1.484815 1.997425,-3.172895 1.96648,-4.860974 -0.03534,-1.81181 -2.470254,-6.89816 -3.283353,-8.838135 -0.437492,-1.051726 -1.3434,-3.102165 -0.547968,-4.153931 0.826368,-1.100332 3.248011,-0.490499 4.401392,-0.300488 2.938671,0.481667 9.4126,2.22721 11.931475,1.060584 0,0 6.628594,-4.202549 6.628594,-4.202549 3.972749,-2.434909 8.091313,-4.529531 12.373393,-6.354594 10.141757,-4.326267 19.629487,-6.407661 30.491557,-7.826169 0,0 7.95431,-0.760096 7.95431,-0.760096 0,0 10.16387,0 10.16387,0 0,0 7.95431,0.760096 7.95431,0.760096 11.26419,1.467113 21.87438,3.902036 32.25919,8.656941 3.70318,1.692516 7.62732,3.712025 11.04767,5.912687 1.84275,1.188751 5.55476,3.986006 7.51242,4.374885 2.07253,0.415413 10.43342,-1.719008 13.25717,-1.953229 2.42166,-0.198895 3.42038,0.512624 2.69123,3.018263 -0.79543,2.748623 -4.34836,9.165102 -4.28652,11.489562 0,0 4.02136,10.163849 4.02136,10.163849 2.11231,6.350171 2.06812,10.269896 1.99301,16.792447 -0.0883,7.57428 -3.5927,16.47427 -8.02502,22.53723 0,0 -4.81678,5.55918 -4.81678,5.55918 -0.81752,0.89708 -1.82064,1.87812 -1.24176,3.2038 0.38447,0.87942 1.82506,1.86485 2.59398,2.44818 0,0 5.74481,4.69747 5.74481,4.69747 6.31483,5.76247 12.08612,11.74589 17.28738,18.56008 13.3235,17.46857 22.51957,36.43522 22.4842,58.77358 -0.0168,10.65439 -3.53968,24.50814 -8.28575,34.02681 -1.14894,2.29791 -2.4128,5.04657 -3.98156,7.06167 -0.65846,0.84845 -1.57322,1.93998 -2.7531,1.93998 -1.35223,0 -2.17862,-1.39643 -2.84147,-2.37305 -1.3699,-2.01951 -1.97975,-3.30102 -4.23344,-4.41907 0,0 3.09333,21.65347 3.09333,21.65347 -3.4734,-0.70706 -7.30031,-4.4942 -10.16385,-6.68166 z M 124.26518,60.081388 c 5.52825,3.035925 9.92522,7.1589 13.6284,12.236419 0,0 3.50875,5.718254 3.50875,5.718254 0.5347,0.848461 1.13126,1.749951 2.28023,1.277115 1.0871,-0.446343 1.82949,-2.041621 2.36862,-3.018222 1.06499,-1.909032 2.05929,-3.575014 3.41151,-5.302868 4.03902,-5.179164 8.68348,-9.138635 14.57411,-12.03755 0,0 5.67848,-2.346503 5.67848,-2.346503 0.64519,-0.38888 1.29479,-0.976628 0.87495,-1.798583 -0.48166,-0.945672 -2.50118,-1.308031 -3.46011,-1.551082 0,0 -9.28003,-1.829513 -9.28003,-1.829513 -10.71183,-1.533406 -21.58271,-1.537815 -32.25919,0.38888 -3.48664,0.631931 -8.60834,0.99429 -11.04766,3.707603 0,0 9.72194,4.55605 9.72194,4.55605 z m -30.933466,5.201249 c -9.447962,3.23478 -17.623238,10.915093 -21.185001,20.29234 -4.75491,12.541328 -1.754367,27.645703 7.945476,37.080393 2.779592,2.70447 5.819913,4.61353 9.262362,6.33696 3.941813,1.9709 8.369711,3.37172 12.815289,3.42475 6.67721,0.0752 12.06407,-0.4949 18.11819,-3.67667 4.22905,-2.22277 8.19295,-5.32495 11.09185,-9.1386 5.85527,-7.69802 7.57871,-13.88913 7.46824,-23.421045 -0.053,-4.41908 -1.48482,-9.310998 -3.42922,-13.257229 -6.49603,-13.18648 -19.9565,-20.703317 -34.57478,-19.315725 -2.12998,0.349093 -5.523824,0.99429 -7.512406,1.674826 z m 70.705086,3.000547 c -9.97827,5.780152 -16.77479,17.216681 -16.79247,28.781381 -0.009,4.816775 0.20327,7.715685 1.80297,12.373385 4.27323,12.45734 17.03551,22.82003 30.4562,22.97913 6.89376,0.0797 10.91955,-0.26956 17.23439,-3.42475 4.64884,-2.32886 8.28573,-4.84772 11.57353,-8.94863 11.26417,-14.04821 10.50412,-33.602586 -2.29349,-46.4002 -3.99485,-3.994837 -8.68789,-7.030707 -14.14102,-8.643675 -4.47654,-1.32572 -9.05024,-1.829485 -13.69911,-1.392014 -5.29847,0.808702 -9.45239,1.962047 -14.141,4.675373 z m -41.77345,15.966099 c 10.04453,13.0318 2.81937,32.621547 -13.4649,35.679527 -8.58184,1.60856 -16.898517,-1.26828 -22.303026,-8.28133 -7.198658,-9.34189 -5.324981,-24.406495 4.184859,-31.481425 2.982862,-2.218346 5.682911,-3.309886 9.280037,-4.10973 8.61276,-1.188737 16.8278,1.082655 22.30303,8.192958 z m 76.54266,-0.883827 c 4.57815,5.470807 5.08193,10.018014 5.00238,16.792454 -0.11479,9.75289 -8.38738,18.02536 -17.67628,19.7709 -18.99756,3.56618 -32.96622,-15.51533 -24.18998,-32.586207 1.45388,-2.828197 3.16848,-4.896312 5.62989,-6.924666 2.73984,-2.262555 6.28836,-3.597133 9.72197,-4.361612 8.09129,-1.118034 16.08982,0.835209 21.51202,7.309131 z M 92.660013,90.87787 c -5.395677,8.939781 0.720312,20.52214 11.277457,20.76519 13.19976,0.30052 18.89594,-15.320889 9.70427,-23.779002 -1.41409,-1.299186 -3.01821,-2.240463 -4.84329,-2.841451 -2.26699,-0.751239 -3.83133,-0.874982 -6.1867,-0.640789 -4.330677,0.81756 -7.609632,2.611707 -9.951737,6.496052 z m 76.038877,2.651442 c -2.96961,8.347628 3.1508,17.892788 12.13037,18.113748 2.29347,0.0531 4.503,-0.16789 6.62858,-1.1136 1.51131,-0.67171 2.79726,-1.70574 3.95946,-2.87683 8.96631,-9.0458 1.97533,-24.596506 -11.47187,-23.270812 -5.33382,1.00757 -9.37285,3.884386 -11.24654,9.147494 z m -45.75943,43.165428 c -3.09777,1.63064 -6.75234,2.73541 -10.16386,3.49106 -2.97843,0.65403 -8.0471,0.27405 -9.97824,2.45699 -1.10477,1.24619 -2.54538,5.69617 -3.133122,7.45058 0,0 -4.949354,16.79241 -4.949354,16.79241 -1.475968,5.9039 -3.522004,16.13846 -3.592698,22.09536 0,0 0,6.62861 0,6.62861 0.0092,6.7214 2.10789,14.54757 4.595827,20.76961 7.194247,17.98561 21.189427,35.1316 41.804367,36.5987 0,0 10.60577,-0.73355 10.60577,-0.73355 13.92447,-1.48923 26.10343,-5.08636 38.88775,-10.73835 4.47211,-1.97533 6.42094,-3.11102 10.60579,-5.49733 1.21969,-0.6938 3.48663,-1.53341 3.11103,-3.29659 -0.43752,-2.05047 -3.68993,-3.74296 -5.32058,-4.85656 0,0 -13.69908,-10.2611 -13.69908,-10.2611 -14.01729,-11.58236 -26.49231,-25.09144 -27.8799,-44.08017 -0.11036,-1.51134 -0.43306,-2.40838 -0.32258,-3.97714 0.64961,-9.10327 2.47466,-15.74514 6.66395,-23.86298 1.15335,-2.23606 4.8256,-6.39881 2.8326,-8.74533 -0.63193,-0.7424 -1.67483,-1.29921 -2.5056,-1.79856 -1.25945,-0.75566 -3.33639,-2.38189 -4.84331,-1.96206 -1.66597,0.4684 -2.3465,2.70445 -3.01379,4.10972 0,0 -5.51058,11.48956 -5.51058,11.48956 -0.69379,1.39204 -2.3156,6.24859 -4.26881,5.65641 -1.40968,-0.42422 -2.43934,-3.49548 -3.0359,-4.77258 0,0 -5.78015,-12.81531 -5.78015,-12.81531 -0.94567,-2.12555 -1.45386,-4.14065 -4.04787,-4.14947 -2.37301,0.85287 -4.73723,2.78399 -7.06166,4.00807 z m 68.93745,3.12871 c -2.87681,0.68053 -7.22518,1.28152 -10.16385,1.28152 0,0 -3.97718,-0.29164 -3.97718,-0.29164 -1.255,-0.014 -3.75618,-0.10619 -4.85655,0.327 -2.79286,1.0915 -5.85969,7.14562 -7.18097,9.83685 -5.23219,10.63227 -6.45184,22.97471 -1.71903,34.02679 5.83317,13.61956 18.2861,24.43302 30.10712,32.88671 5.09516,3.64132 10.24337,7.3489 15.90862,10.07545 0,0 17.67626,6.73026 17.67626,6.73026 3.71645,1.50691 7.7201,4.11857 10.5881,6.91142 1.1622,1.12685 3.18613,4.10088 4.83446,4.10088 1.91784,0 3.33639,-4.81678 3.87111,-6.35018 2.19625,-6.35905 4.04785,-15.37394 4.12738,-22.09535 0.29611,-25.42286 -13.06716,-46.28529 -29.53263,-64.51836 -4.03018,-4.46325 -8.49785,-8.50227 -13.33231,-12.095 -2.21393,-1.64389 -4.67536,-3.49989 -7.5124,-3.62362 0,0 -8.83813,2.79727 -8.83813,2.79727 z m 18.98429,96.74662 c -0.75124,-0.3933 -2.04162,-0.83079 -2.81053,-0.2785 -0.8573,0.61428 -0.70259,2.20955 -0.38001,3.06686 0.86613,2.2979 3.17731,3.7562 5.41775,4.41905 0.7601,-2.68679 0.5259,-5.75806 -2.22721,-7.20749 z m 9.12094,5.49732 c -0.36678,1.80297 1.392,8.19296 2.5719,9.62472 0.71148,0.86613 2.41725,2.32441 3.65015,1.92671 1.44947,-0.46398 0.59217,-3.44685 0.39772,-4.53838 -0.59656,-3.2922 -1.11801,-8.97951 -5.81107,-8.13552 -0.15029,0.13267 -0.61868,0.17682 -0.8087,1.12247 z"
     style="fill:#ffffff;stroke:#ffffff;stroke-width:1.45425582;stroke-miterlimit:4;stroke-opacity:1;stroke-dasharray:none"
     inkscape:connector-curvature="0" />
</svg>
