<?xml version="1.0" encoding="UTF-8" standalone="no"?>
<svg
   xmlns:dc="http://purl.org/dc/elements/1.1/"
   xmlns:cc="http://creativecommons.org/ns#"
   xmlns:rdf="http://www.w3.org/1999/02/22-rdf-syntax-ns#"
   xmlns:svg="http://www.w3.org/2000/svg"
   xmlns="http://www.w3.org/2000/svg"
   xmlns:sodipodi="http://sodipodi.sourceforge.net/DTD/sodipodi-0.dtd"
   xmlns:inkscape="http://www.inkscape.org/namespaces/inkscape"
   width="6.19367in"
   height="7.36019in"
   viewBox="0 0 446 530"
   id="svg2"
   version="1.1"
   inkscape:version="0.48.4 r9939"
   sodipodi:docname="owl.svg"
   inkscape:export-filename="/home/karen/Desktop/owl.png"
   inkscape:export-xdpi="100"
   inkscape:export-ydpi="100">
  <metadata
     id="metadata9">
    <rdf:RDF>
      <cc:Work
         rdf:about="">
        <dc:format>image/svg+xml</dc:format>
        <dc:type
           rdf:resource="http://purl.org/dc/dcmitype/StillImage" />
        <dc:title></dc:title>
      </cc:Work>
    </rdf:RDF>
  </metadata>
  <defs
     id="defs7" />
  <sodipodi:namedview
     pagecolor="#ffffff"
     bordercolor="#666666"
     borderopacity="1"
     objecttolerance="10"
     gridtolerance="10"
     guidetolerance="10"
     inkscape:pageopacity="0"
     inkscape:pageshadow="2"
     inkscape:window-width="1881"
     inkscape:window-height="1056"
     id="namedview5"
     showgrid="false"
     inkscape:zoom="1.0076865"
     inkscape:cx="373.10049"
     inkscape:cy="438.89141"
     inkscape:window-x="39"
     inkscape:window-y="24"
     inkscape:window-maximized="1"
     inkscape:current-layer="svg2" />
  <path
     id="Selection #2"
     fill="none"
     stroke="black"
     stroke-width="1"
     d="M 380.00,511.88            C 380.00,511.88 335.00,477.21 335.00,477.21              330.68,473.82 316.43,461.97 312.00,461.32              307.65,460.67 300.95,464.78 297.00,466.75              297.00,466.75 270.00,478.19 270.00,478.19              247.48,486.73 207.95,495.96 184.00,496.00              167.88,496.03 158.80,496.82 143.00,491.31              93.83,474.15 59.49,419.49 50.26,370.00              48.17,358.78 47.87,347.38 48.00,336.00              48.00,336.00 48.91,326.00 48.91,326.00              50.54,302.73 55.73,280.38 62.14,258.00              62.14,258.00 69.67,235.00 69.67,235.00              70.50,232.49 72.51,227.53 71.94,225.04              70.95,220.74 65.56,219.61 62.00,218.31              54.61,215.60 45.33,210.51 39.00,205.84              19.97,191.81 7.20,171.99 1.99,149.00              0.73,143.46 0.08,143.00 0.00,137.00              -0.20,120.02 -1.15,113.52 4.33,97.00              6.42,90.72 7.17,88.04 10.26,82.00              11.98,78.64 14.78,74.82 14.71,71.00              14.63,66.90 9.12,55.39 7.28,51.00              6.29,48.62 4.24,43.98 6.04,41.60              7.91,39.11 13.39,40.49 16.00,40.92              22.65,42.01 37.30,45.96 43.00,43.32              43.00,43.32 58.00,33.81 58.00,33.81              66.99,28.30 76.31,23.56 86.00,19.43              108.95,9.64 130.42,4.93 155.00,1.72              155.00,1.72 173.00,0.00 173.00,0.00              173.00,0.00 196.00,0.00 196.00,0.00              196.00,0.00 214.00,1.72 214.00,1.72              239.49,5.04 263.50,10.55 287.00,21.31              295.38,25.14 304.26,29.71 312.00,34.69              316.17,37.38 324.57,43.71 329.00,44.59              333.69,45.53 352.61,40.70 359.00,40.17              364.48,39.72 366.74,41.33 365.09,47.00              363.29,53.22 355.25,67.74 355.39,73.00              355.39,73.00 364.49,96.00 364.49,96.00              369.27,110.37 369.17,119.24 369.00,134.00              368.80,151.14 360.87,171.28 350.84,185.00              350.84,185.00 339.94,197.58 339.94,197.58              338.09,199.61 335.82,201.83 337.13,204.83              338.00,206.82 341.26,209.05 343.00,210.37              343.00,210.37 356.00,221.00 356.00,221.00              370.29,234.04 383.35,247.58 395.12,263.00              425.27,302.53 446.08,345.45 446.00,396.00              445.96,420.11 437.99,451.46 427.25,473.00              424.65,478.20 421.79,484.42 418.24,488.98              416.75,490.90 414.68,493.37 412.01,493.37              408.95,493.37 407.08,490.21 405.58,488.00              402.48,483.43 401.10,480.53 396.00,478.00              396.00,478.00 403.00,527.00 403.00,527.00              395.14,525.40 386.48,516.83 380.00,511.88 Z            M 142.00,41.31            C 154.51,48.18 164.46,57.51 172.84,69.00              172.84,69.00 180.78,81.94 180.78,81.94              181.99,83.86 183.34,85.90 185.94,84.83              188.40,83.82 190.08,80.21 191.30,78.00              193.71,73.68 195.96,69.91 199.02,66.00              208.16,54.28 218.67,45.32 232.00,38.76              232.00,38.76 244.85,33.45 244.85,33.45              246.31,32.57 247.78,31.24 246.83,29.38              245.74,27.24 241.17,26.42 239.00,25.87              239.00,25.87 218.00,21.73 218.00,21.73              193.76,18.26 169.16,18.25 145.00,22.61              137.11,24.04 125.52,24.86 120.00,31.00              120.00,31.00 142.00,41.31 142.00,41.31 Z            M 72.00,53.08            C 50.62,60.40 32.12,77.78 24.06,99.00              13.30,127.38 20.09,161.56 42.04,182.91              48.33,189.03 55.21,193.35 63.00,197.25              71.92,201.71 81.94,204.88 92.00,205.00              107.11,205.17 119.30,203.88 133.00,196.68              142.57,191.65 151.54,184.63 158.10,176.00              171.35,158.58 175.25,144.57 175.00,123.00              174.88,113.00 171.64,101.93 167.24,93.00              152.54,63.16 122.08,46.15 89.00,49.29              84.18,50.08 76.50,51.54 72.00,53.08 Z            M 232.00,59.87            C 209.42,72.95 194.04,98.83 194.00,125.00              193.98,135.90 194.46,142.46 198.08,153.00              207.75,181.19 236.63,204.64 267.00,205.00              282.60,205.18 291.71,204.39 306.00,197.25              316.52,191.98 324.75,186.28 332.19,177.00              357.68,145.21 355.96,100.96 327.00,72.00              317.96,62.96 307.34,56.09 295.00,52.44              284.87,49.44 274.52,48.30 264.00,49.29              252.01,51.12 242.61,53.73 232.00,59.87 Z            M 137.47,96.00            C 160.20,125.49 143.85,169.82 107.00,176.74              87.58,180.38 68.76,173.87 56.53,158.00              40.24,136.86 44.48,102.77 66.00,86.76              72.75,81.74 78.86,79.27 87.00,77.46              106.49,74.77 125.08,79.91 137.47,96.00 Z            M 310.68,94.00            C 321.04,106.38 322.18,116.67 322.00,132.00              321.74,154.07 303.02,172.79 282.00,176.74              239.01,184.81 207.40,141.63 227.26,103.00              230.55,96.60 234.43,91.92 240.00,87.33              246.20,82.21 254.23,79.19 262.00,77.46              280.31,74.93 298.41,79.35 310.68,94.00 Z            M 70.48,111.00            C 58.27,131.23 72.11,157.44 96.00,157.99              125.87,158.67 138.76,123.32 117.96,104.18              114.76,101.24 111.13,99.11 107.00,97.75              101.87,96.05 98.33,95.77 93.00,96.30              83.20,98.15 75.78,102.21 70.48,111.00 Z            M 242.55,117.00            C 235.83,135.89 249.68,157.49 270.00,157.99              275.19,158.11 280.19,157.61 285.00,155.47              288.42,153.95 291.33,151.61 293.96,148.96              314.25,128.49 298.43,93.30 268.00,96.30              255.93,98.58 246.79,105.09 242.55,117.00 Z            M 139.00,214.68            C 131.99,218.37 123.72,220.87 116.00,222.58              109.26,224.06 97.79,223.20 93.42,228.14              90.92,230.96 87.66,241.03 86.33,245.00              86.33,245.00 75.13,283.00 75.13,283.00              71.79,296.36 67.16,319.52 67.00,333.00              67.00,333.00 67.00,348.00 67.00,348.00              67.02,363.21 71.77,380.92 77.40,395.00              93.68,435.70 125.35,474.50 172.00,477.82              172.00,477.82 196.00,476.16 196.00,476.16              227.51,472.79 255.07,464.65 284.00,451.86              294.12,447.39 298.53,444.82 308.00,439.42              310.76,437.85 315.89,435.95 315.04,431.96              314.05,427.32 306.69,423.49 303.00,420.97              303.00,420.97 272.00,397.75 272.00,397.75              240.28,371.54 212.05,340.97 208.91,298.00              208.66,294.58 207.93,292.55 208.18,289.00              209.65,268.40 213.78,253.37 223.26,235.00              225.87,229.94 234.18,220.52 229.67,215.21              228.24,213.53 225.88,212.27 224.00,211.14              221.15,209.43 216.45,205.75 213.04,206.70              209.27,207.76 207.73,212.82 206.22,216.00              206.22,216.00 193.75,242.00 193.75,242.00              192.18,245.15 188.51,256.14 184.09,254.80              180.90,253.84 178.57,246.89 177.22,244.00              177.22,244.00 164.14,215.00 164.14,215.00              162.00,210.19 160.85,205.63 154.98,205.61              149.61,207.54 144.26,211.91 139.00,214.68 Z            M 295.00,221.76            C 288.49,223.30 278.65,224.66 272.00,224.66              272.00,224.66 263.00,224.00 263.00,224.00              260.16,223.97 254.50,223.76 252.01,224.74              245.69,227.21 238.75,240.91 235.76,247.00              223.92,271.06 221.16,298.99 231.87,324.00              245.07,354.82 273.25,379.29 300.00,398.42              311.53,406.66 323.18,415.05 336.00,421.22              336.00,421.22 376.00,436.45 376.00,436.45              384.41,439.86 393.47,445.77 399.96,452.09              402.59,454.64 407.17,461.37 410.90,461.37              415.24,461.37 418.45,450.47 419.66,447.00              424.63,432.61 428.82,412.21 429.00,397.00              429.67,339.47 399.43,292.26 362.17,251.00              353.05,240.90 342.94,231.76 332.00,223.63              326.99,219.91 321.42,215.71 315.00,215.43              315.00,215.43 295.00,221.76 295.00,221.76 Z            M 337.96,440.69            C 336.26,439.80 333.34,438.81 331.60,440.06              329.66,441.45 330.01,445.06 330.74,447.00              332.70,452.20 337.93,455.50 343.00,457.00              344.72,450.92 344.19,443.97 337.96,440.69 Z            M 358.60,453.13            C 357.77,457.21 361.75,471.67 364.42,474.91              366.03,476.87 369.89,480.17 372.68,479.27              375.96,478.22 374.02,471.47 373.58,469.00              372.23,461.55 371.05,448.68 360.43,450.59              360.09,450.89 359.03,450.99 358.60,453.13 Z"
     style="fill:#ffffff;stroke:none" />
</svg>
